<svg width="28" height="28" viewBox="0 0 28 28" fill="none" xmlns="http://www.w3.org/2000/svg">
<path d="M24.5 0H3.5C1.56975 0 0 1.56975 0 3.5V24.5C0 26.4303 1.56975 28 3.5 28H24.5C26.4303 28 28 26.4303 28 24.5V3.5C28 1.56975 26.4303 0 24.5 0Z" fill="#2C2A2B"/>
<path fill-rule="evenodd" clip-rule="evenodd" d="M17.5 12.6154H15.1667V10.7692C15.1667 10.2597 15.5848 10.3077 16.1 10.3077H17.0333V8H15.1667C14.4241 8 13.7119 8.29176 13.1868 8.81109C12.6617 9.33042 12.3667 10.0348 12.3667 10.7692V12.6154H10.5V14.9231H12.3667V20H15.1667V14.9231H16.5667L17.5 12.6154Z" fill="#ECECEC"/>
</svg>
