<svg width="28" height="28" viewBox="0 0 28 28" fill="none" xmlns="http://www.w3.org/2000/svg">
<path d="M28 24.1111C28 25.1425 27.5903 26.1317 26.861 26.861C26.1317 27.5903 25.1425 28 24.1111 28H3.88889C2.85749 28 1.86834 27.5903 1.13903 26.861C0.409721 26.1317 0 25.1425 0 24.1111V3.88889C0 2.85749 0.409721 1.86834 1.13903 1.13903C1.86834 0.409721 2.85749 0 3.88889 0H24.1111C25.1425 0 26.1317 0.409721 26.861 1.13903C27.5903 1.86834 28 2.85749 28 3.88889V24.1111Z" fill="#2C2A2B"/>
<path d="M19.4092 10.5042C19.0117 10.6894 18.5082 10.8633 18.057 10.9211C18.5158 10.6349 19.2438 10.0391 19.4092 9.5C18.9806 9.76479 18.2053 10.0476 17.6995 10.1499C17.2956 9.69989 16.7196 9.5 16.0813 9.5C14.8552 9.5 14.0002 10.5918 14.0002 11.8684V12.8158C12.1971 12.8158 10.4392 11.3725 9.34518 9.97368C9.14737 10.3262 9.04352 10.7283 9.04453 11.1375C9.04453 11.9992 9.79774 12.8736 10.3941 13.2895C10.0303 13.2776 9.34158 12.9858 9.04182 12.8158V12.8428C9.04182 13.964 9.79053 14.7252 10.8052 14.9374C10.6199 14.9909 10.3941 15.1842 9.52503 15.1842C9.80721 16.1008 11.2257 16.5854 12.1971 16.6053C11.4371 17.2244 10.0822 17.5526 9.04182 17.5526C8.86197 17.5526 8.76461 17.5631 8.59106 17.5417C9.57281 18.1954 10.944 18.5 12.1971 18.5C16.2796 18.5 18.5077 15.2231 18.5077 12.1668C18.5077 12.0664 18.5046 11.7301 18.4996 11.6316C18.936 11.3085 19.1126 10.9703 19.4092 10.5042Z" fill="#ECECEC"/>
</svg>
