<svg width="28" height="28" viewBox="0 0 28 28" fill="none" xmlns="http://www.w3.org/2000/svg">
<path d="M21.7153 0H6.28472C2.81377 0 0 2.81377 0 6.28472V21.7153C0 25.1862 2.81377 28 6.28472 28H21.7153C25.1862 28 28 25.1862 28 21.7153V6.28472C28 2.81377 25.1862 0 21.7153 0Z" fill="#2C2A2B"/>
<path d="M10.9376 12.3151H8.65949V18.9866H10.9376V12.3151Z" fill="#ECECEC"/>
<path d="M10.5546 9.20164C10.3375 9.07017 10.0823 9 9.82133 9C9.64718 9 9.47474 9.03124 9.31393 9.09194C9.15312 9.15264 9.00713 9.24159 8.88433 9.35367C8.76154 9.46576 8.66437 9.59878 8.59841 9.74507C8.53246 9.89136 8.49902 10.048 8.50002 10.2061C8.50152 10.443 8.58029 10.6742 8.72639 10.8705C8.87248 11.0668 9.07936 11.2194 9.32093 11.3091C9.5625 11.3988 9.82793 11.4216 10.0837 11.3745C10.3395 11.3275 10.5743 11.2127 10.7583 11.0448C10.9423 10.8768 11.0674 10.6631 11.1178 10.4306C11.1682 10.1982 11.1416 9.95744 11.0413 9.73872C10.9411 9.51999 10.7717 9.3331 10.5546 9.20164Z" fill="#ECECEC"/>
<path d="M14.5944 12.3147H12.3998L12.3923 19H14.6704V15.6987C14.6704 14.8303 14.8526 13.9895 16.0372 13.9895C17.2219 13.9895 17.2219 14.9888 17.2219 15.7607V18.9862H19.5V15.3265C19.5 13.5277 19.0368 12.1493 16.7587 12.1493C16.3245 12.1339 15.8938 12.2258 15.5126 12.4151C15.1315 12.6045 14.8141 12.8842 14.5944 13.2245V12.3147Z" fill="#ECECEC"/>
</svg>
